<svg xmlns="http://www.w3.org/2000/svg" viewBox="0 0 42.67 42.67"><title>Asset 13</title><g id="Layer_2" data-name="Layer 2"><g id="Layer_3" data-name="Layer 3"><path d="M21.33,21.33A10.26,10.26,0,0,1,13.8,18.2a10.26,10.26,0,0,1-3.13-7.53A10.27,10.27,0,0,1,13.8,3.13,10.26,10.26,0,0,1,21.33,0a10.27,10.27,0,0,1,7.54,3.13A10.31,10.31,0,0,1,32,10.67a10.3,10.3,0,0,1-3.13,7.53A10.27,10.27,0,0,1,21.33,21.33ZM0,42.67V35.2a8,8,0,0,1,4.27-7.07,39.85,39.85,0,0,1,8.4-3.1A37,37,0,0,1,30,25a40.26,40.26,0,0,1,8.4,3.1,8,8,0,0,1,4.27,7.07v7.47Z"/></g></g></svg>