<svg xmlns="http://www.w3.org/2000/svg" viewBox="0 0 456.33 145.78"><defs><style>.cls-1{fill:#fff;}</style></defs><title>Asset 11</title><g id="Layer_2" data-name="Layer 2"><g id="Layer_1-2" data-name="Layer 1"><rect x="38.9" y="101.76" width="378.82" height="41.18"/><path d="M456.33,145.78H0V22H456.33ZM5,140.78H451.33V27H5Z"/><path d="M438.33,113h-419V0h419Zm-414-5h409V5h-409Z"/><path d="M61.61,83.5V34.9H73.67a13.35,13.35,0,0,1,7,1.59,9.21,9.21,0,0,1,3.81,4.59,19.56,19.56,0,0,1,1.2,7.26A15.28,15.28,0,0,1,84.32,55a9.79,9.79,0,0,1-4,4.35,13,13,0,0,1-6.6,1.53H68.39V83.5ZM68.39,56h3.12a13,13,0,0,0,4.62-.66,4.2,4.2,0,0,0,2.4-2.31,12,12,0,0,0,.72-4.65,21.37,21.37,0,0,0-.51-5.34,3.73,3.73,0,0,0-2.13-2.58,13.16,13.16,0,0,0-5-.72H68.39Z"/><path d="M90.29,43.66V36.94h6.42v6.72Zm0,39.84V48.82h6.42V83.5Z"/><path d="M112.61,94.24a22.27,22.27,0,0,1-5.64-.66,8.52,8.52,0,0,1-4-2.1,5.11,5.11,0,0,1-1.44-3.78,5.82,5.82,0,0,1,.72-2.94,7.8,7.8,0,0,1,1.86-2.19,11.86,11.86,0,0,1,2.4-1.53A4.8,4.8,0,0,1,104,79.51a3.46,3.46,0,0,1-.84-2.19,5.4,5.4,0,0,1,1-3.3A20.88,20.88,0,0,1,107,71a9.48,9.48,0,0,1-3-3.84,16.62,16.62,0,0,1-1-6.48,18.17,18.17,0,0,1,1.11-6.81,8.6,8.6,0,0,1,3.3-4.14,9.72,9.72,0,0,1,5.37-1.41,9.23,9.23,0,0,1,4.53,1,6.22,6.22,0,0,1,2.61,2.88,10.23,10.23,0,0,1,1.62-1.65,11.93,11.93,0,0,1,3.06-2l1-.42,1.62,4.14a12.41,12.41,0,0,0-2.07.57q-1.29.45-2.4.9a4.87,4.87,0,0,0-1.41.75,14.61,14.61,0,0,1,.75,2.94,20.43,20.43,0,0,1,.33,3.42,19.73,19.73,0,0,1-.9,6.24,8.39,8.39,0,0,1-3,4.23,9.47,9.47,0,0,1-5.73,1.53,12.76,12.76,0,0,1-1.68-.12,14.76,14.76,0,0,1-1.62-.3q-.36.54-.75,1.26a2.9,2.9,0,0,0-.39,1.38,1.18,1.18,0,0,0,.69,1.05,5.57,5.57,0,0,0,2.19.51l5.4.48q4.08.36,6.06,2.46a8.42,8.42,0,0,1,2,6,8.31,8.31,0,0,1-1.32,4.77,7.82,7.82,0,0,1-4,2.91A20.2,20.2,0,0,1,112.61,94.24Zm.48-5a11.83,11.83,0,0,0,5-.81,2.72,2.72,0,0,0,1.62-2.61,3.75,3.75,0,0,0-.39-1.8A2.67,2.67,0,0,0,118,82.84a10.69,10.69,0,0,0-2.94-.6l-5.46-.48q-.66.66-1.26,1.32a5.87,5.87,0,0,0-1,1.41,3.63,3.63,0,0,0-.36,1.59,2.55,2.55,0,0,0,1.32,2.34A10.29,10.29,0,0,0,113.09,89.2Zm-.3-20.82a4.08,4.08,0,0,0,2.19-.51,3.18,3.18,0,0,0,1.23-1.5,8.52,8.52,0,0,0,.57-2.43,31.52,31.52,0,0,0,.15-3.24,32.42,32.42,0,0,0-.15-3.27,10.28,10.28,0,0,0-.54-2.52,3.16,3.16,0,0,0-1.2-1.59,3.9,3.9,0,0,0-2.19-.54,4.09,4.09,0,0,0-2.19.54,3.24,3.24,0,0,0-1.29,1.53,9.22,9.22,0,0,0-.6,2.46,28.21,28.21,0,0,0-.18,3.39,28.71,28.71,0,0,0,.15,3,8.16,8.16,0,0,0,.6,2.43,3.85,3.85,0,0,0,1.29,1.62A3.63,3.63,0,0,0,112.79,68.38Z"/><path d="M129.71,83.5V48.82h6.42v3.42A18.71,18.71,0,0,1,140,49.48a9.53,9.53,0,0,1,4.62-1.14,4.42,4.42,0,0,1,3.21,1.08,5.88,5.88,0,0,1,1.56,2.7,12.27,12.27,0,0,1,.45,3.3V83.5h-6.42V57.28a6.25,6.25,0,0,0-.54-2.88,2.27,2.27,0,0,0-2.22-1,4.75,4.75,0,0,0-2.25.63,13.55,13.55,0,0,0-2.25,1.53v28Z"/><path d="M165.59,84a10.38,10.38,0,0,1-6.06-1.56A8.38,8.38,0,0,1,156.38,78a22.13,22.13,0,0,1-.93-6.78V61.12a22.13,22.13,0,0,1,.93-6.78,8.38,8.38,0,0,1,3.15-4.44,10.38,10.38,0,0,1,6.06-1.56,10.23,10.23,0,0,1,6,1.56,8.44,8.44,0,0,1,3.12,4.44,22.13,22.13,0,0,1,.93,6.78V71.2a22.13,22.13,0,0,1-.93,6.78,8.44,8.44,0,0,1-3.12,4.44A10.23,10.23,0,0,1,165.59,84Zm0-4.74a3,3,0,0,0,2.61-1.08,5.79,5.79,0,0,0,.9-2.85q.15-1.77.15-3.69V60.76q0-2-.15-3.72a5.93,5.93,0,0,0-.9-2.85,2.92,2.92,0,0,0-2.61-1.11A3,3,0,0,0,163,54.19,5.73,5.73,0,0,0,162,57q-.15,1.74-.15,3.72V71.62q0,1.92.15,3.69a5.6,5.6,0,0,0,.93,2.85A3,3,0,0,0,165.59,79.24Z"/><path d="M181.55,83.5V48.82H188v3.42a18.71,18.71,0,0,1,3.84-2.76,9.53,9.53,0,0,1,4.62-1.14,4.42,4.42,0,0,1,3.21,1.08,5.88,5.88,0,0,1,1.56,2.7,12.27,12.27,0,0,1,.45,3.3V83.5h-6.42V57.28a6.25,6.25,0,0,0-.54-2.88,2.27,2.27,0,0,0-2.22-1,4.75,4.75,0,0,0-2.25.63A13.55,13.55,0,0,0,188,55.54v28Z"/><path d="M207.59,67.84V63H221v4.86Z"/><path d="M235.19,84a9.08,9.08,0,0,1-6.84-2.67,11.09,11.09,0,0,1-2.94-7l5.34-1.62a11.84,11.84,0,0,0,1.62,5,3.82,3.82,0,0,0,3.36,1.65,3.39,3.39,0,0,0,2.64-1,3.82,3.82,0,0,0,.9-2.67,5.51,5.51,0,0,0-.66-2.7,9.06,9.06,0,0,0-2.16-2.46l-5.94-5.1a16.06,16.06,0,0,1-3-3.48,9.1,9.1,0,0,1-1.23-5,9,9,0,0,1,1.11-4.65,7.25,7.25,0,0,1,3.12-2.88,10.54,10.54,0,0,1,4.71-1A7.72,7.72,0,0,1,241.52,51,11.31,11.31,0,0,1,244,57.46l-4.32,1.62a15.61,15.61,0,0,0-.72-3.15,5,5,0,0,0-1.32-2.1,3.21,3.21,0,0,0-2.22-.75,3.16,3.16,0,0,0-2.49,1.05,3.63,3.63,0,0,0-.93,2.49,4.29,4.29,0,0,0,.39,1.77,5.12,5.12,0,0,0,1.35,1.71l6.12,5.64a25.08,25.08,0,0,1,2.37,2.46,11.93,11.93,0,0,1,1.83,3,9.83,9.83,0,0,1,.72,3.9,9.34,9.34,0,0,1-1.2,4.92,7.47,7.47,0,0,1-3.36,3A12,12,0,0,1,235.19,84Z"/><path d="M254.57,84a4.44,4.44,0,0,1-3.18-1.08,5.76,5.76,0,0,1-1.59-2.7,12.27,12.27,0,0,1-.45-3.3V48.82h6.42V75a6.45,6.45,0,0,0,.54,2.91,2.25,2.25,0,0,0,2.22,1,4.75,4.75,0,0,0,2.25-.63A13.55,13.55,0,0,0,263,76.78v-28h6.42V83.5H263V80.08a17,17,0,0,1-3.81,2.76A9.7,9.7,0,0,1,254.57,84Z"/><path d="M276.17,83.5V48.82h6.42v4.92a11.66,11.66,0,0,1,3.84-4.26,7.77,7.77,0,0,1,3.84-1.08h.45a3.67,3.67,0,0,1,.57.06v7.08a10.07,10.07,0,0,0-1.65-.51,8.55,8.55,0,0,0-1.89-.21,5.48,5.48,0,0,0-2.73.69,7.31,7.31,0,0,0-2.43,2.67V83.5Z"/><path d="M295,67.84V63h13.38v4.86Z"/><path d="M314.51,83.5V48.82h5.94v3.3a11.48,11.48,0,0,1,3.84-2.94,10.29,10.29,0,0,1,4.32-1,6.36,6.36,0,0,1,3.45,1,5.49,5.49,0,0,1,2.19,3.42,12,12,0,0,1,4.05-3.33,10.49,10.49,0,0,1,4.59-1.05A5.93,5.93,0,0,1,346,49a5.71,5.71,0,0,1,2.22,2.58,10.92,10.92,0,0,1,.84,4.65V83.5h-5.88V56.68q0-2.52-.81-3.39a2.85,2.85,0,0,0-2.19-.87,6,6,0,0,0-2.76.75,9.5,9.5,0,0,0-2.64,2.07V83.5h-5.88V56.68q0-2.52-.81-3.39a2.85,2.85,0,0,0-2.19-.87,5.8,5.8,0,0,0-2.73.75,10.58,10.58,0,0,0-2.67,2.07V83.5Z"/><path d="M364.91,84a10.7,10.7,0,0,1-6.3-1.59,8.28,8.28,0,0,1-3.09-4.68,28.4,28.4,0,0,1-.87-7.59V62.2a27.69,27.69,0,0,1,.9-7.68,8.21,8.21,0,0,1,3.15-4.62,10.76,10.76,0,0,1,6.21-1.56q4.38,0,6.45,1.8a8.86,8.86,0,0,1,2.73,5.19,43.19,43.19,0,0,1,.66,8.13v2.82H361.07v7a12.37,12.37,0,0,0,.39,3.42,3.55,3.55,0,0,0,1.26,2,3.74,3.74,0,0,0,2.25.63,3.13,3.13,0,0,0,2.19-.69,3.61,3.61,0,0,0,1-2,15,15,0,0,0,.27-3v-2.1h6.24v1.32q0,5.22-2.22,8.22T364.91,84ZM361.07,62.8h7.38V59.68a23.06,23.06,0,0,0-.24-3.63,4,4,0,0,0-1-2.22,3.24,3.24,0,0,0-2.37-.75,3.46,3.46,0,0,0-2.37.72,4.12,4.12,0,0,0-1.11,2.43,28.72,28.72,0,0,0-.3,4.71Z"/><path d="M380.75,83.5V48.82h6.42v4.92A11.66,11.66,0,0,1,391,49.48a7.77,7.77,0,0,1,3.84-1.08h.45a3.67,3.67,0,0,1,.57.06v7.08a10.07,10.07,0,0,0-1.65-.51,8.55,8.55,0,0,0-1.89-.21,5.48,5.48,0,0,0-2.73.69,7.31,7.31,0,0,0-2.43,2.67V83.5Z"/><path class="cls-1" d="M141.1,137.5V108.34h6.44v11.81H152V108.34h6.48V137.5H152V124.76h-4.5V137.5Z"/><path class="cls-1" d="M171.38,137.93a10.37,10.37,0,0,1-5.24-1.1,5.91,5.91,0,0,1-2.65-3.2,15.52,15.52,0,0,1-.75-5.17V108.34h6.37v21.1a12.13,12.13,0,0,0,.14,1.8,3,3,0,0,0,.63,1.47,2.24,2.24,0,0,0,3,0,2.88,2.88,0,0,0,.59-1.47,12.11,12.11,0,0,0,.13-1.8v-21.1H180v20.12a15,15,0,0,1-.78,5.17,6,6,0,0,1-2.64,3.2A10.29,10.29,0,0,1,171.38,137.93Z"/><path class="cls-1" d="M184.12,137.5V108.34h7.6a21.05,21.05,0,0,1,3.54.29,8.06,8.06,0,0,1,3,1.1,5.52,5.52,0,0,1,2,2.3A9,9,0,0,1,201,116a7.42,7.42,0,0,1-.52,3,4.72,4.72,0,0,1-1.47,1.93,5.45,5.45,0,0,1-2.29,1,5.68,5.68,0,0,1,2.84,1.1,5.47,5.47,0,0,1,1.75,2.36,9.44,9.44,0,0,1,.59,3.56,11.45,11.45,0,0,1-.59,3.91,6.87,6.87,0,0,1-1.71,2.68,7,7,0,0,1-2.75,1.55,13.09,13.09,0,0,1-3.77.5Zm6.44-17.5h1.26a4.47,4.47,0,0,0,2.24-.45,2.24,2.24,0,0,0,1-1.31,7.07,7.07,0,0,0,.27-2.09,4.07,4.07,0,0,0-.41-1.92,2.68,2.68,0,0,0-1.23-1.17,4.5,4.5,0,0,0-2-.4h-1.12Zm0,13h1.37a3.47,3.47,0,0,0,2.94-1.08,5.24,5.24,0,0,0,.81-3.17,7.81,7.81,0,0,0-.36-2.63,2.59,2.59,0,0,0-1.19-1.42,4.69,4.69,0,0,0-2.23-.45h-1.34Z"/><path class="cls-1" d="M221,137.86a8.38,8.38,0,0,1-3.87-.83,5.83,5.83,0,0,1-2.47-2.37,7.67,7.67,0,0,1-.86-3.75v-7.63a7.71,7.71,0,0,1,.86-3.78,5.75,5.75,0,0,1,2.47-2.36,8.51,8.51,0,0,1,3.87-.81,9.42,9.42,0,0,1,3.8.69,5,5,0,0,1,2.39,2.07,6.75,6.75,0,0,1,.83,3.51v2.19h-5.65v-2.37a3.83,3.83,0,0,0-.17-1.28,1.11,1.11,0,0,0-.46-.63,1.45,1.45,0,0,0-.74-.18,1.13,1.13,0,0,0-.72.23,1.43,1.43,0,0,0-.43.76,5.53,5.53,0,0,0-.15,1.46v8.64a3.74,3.74,0,0,0,.34,1.9,1.12,1.12,0,0,0,1,.51,1.32,1.32,0,0,0,.76-.2,1.17,1.17,0,0,0,.43-.65,3.9,3.9,0,0,0,.15-1.2V129H228v2.52a6.66,6.66,0,0,1-.85,3.51,5.22,5.22,0,0,1-2.41,2.13A9.11,9.11,0,0,1,221,137.86Z"/><path class="cls-1" d="M234.7,137.86a3.57,3.57,0,0,1-2.14-.63,3.73,3.73,0,0,1-1.32-1.75,7,7,0,0,1-.43-2.48V116.69h5.87v15.63a2.16,2.16,0,0,0,.27,1.17,1.06,1.06,0,0,0,1,.41,2,2,0,0,0,.83-.2q.44-.19.9-.45V116.69h5.83V137.5h-5.83v-1.91a9.65,9.65,0,0,1-2.36,1.66A5.68,5.68,0,0,1,234.7,137.86Z"/><path class="cls-1" d="M249.42,137.5V108.34h5.83V137.5Z"/><path class="cls-1" d="M265.48,137.72a7.73,7.73,0,0,1-3.62-.69,3.58,3.58,0,0,1-1.75-2,9.54,9.54,0,0,1-.46-3.18V120.54h-2v-3.85h2v-6.33h5.94v6.33h3v3.85h-3v10.73a1.53,1.53,0,0,0,.52,1.3,2.12,2.12,0,0,0,1.31.39,6,6,0,0,0,.87-.05l.72-.09v4.61c-.32,0-.81.11-1.48.18A19.81,19.81,0,0,1,265.48,137.72Z"/><path class="cls-1" d="M275.45,137.86a3.59,3.59,0,0,1-2.14-.63,3.73,3.73,0,0,1-1.32-1.75,7,7,0,0,1-.43-2.48V116.69h5.87v15.63a2.16,2.16,0,0,0,.27,1.17,1.06,1.06,0,0,0,.95.41,2,2,0,0,0,.83-.2q.43-.19.9-.45V116.69h5.83V137.5h-5.83v-1.91a9.65,9.65,0,0,1-2.36,1.66A5.68,5.68,0,0,1,275.45,137.86Z"/><path class="cls-1" d="M290,137.5V116.69h5.87v3.46a11.74,11.74,0,0,1,2-2.76,3.45,3.45,0,0,1,2.45-1l.5,0a1.3,1.3,0,0,1,.4.09v5.83a6.16,6.16,0,0,0-.89-.31,4.19,4.19,0,0,0-1-.12,3.45,3.45,0,0,0-1.87.54,6.08,6.08,0,0,0-1.59,1.47V137.5Z"/><path class="cls-1" d="M310.51,137.86a8.66,8.66,0,0,1-3.89-.81,5.65,5.65,0,0,1-2.48-2.38,7.71,7.71,0,0,1-.86-3.76v-7.63a7.71,7.71,0,0,1,.86-3.78,5.71,5.71,0,0,1,2.5-2.36,8.63,8.63,0,0,1,3.87-.81,8.41,8.41,0,0,1,3.84.79,5.21,5.21,0,0,1,2.3,2.34,8.47,8.47,0,0,1,.77,3.82v4.18h-8.35v4a4,4,0,0,0,.18,1.3,1.43,1.43,0,0,0,.51.72,1.32,1.32,0,0,0,.75.21,1.55,1.55,0,0,0,.78-.19,1.47,1.47,0,0,0,.54-.63,3,3,0,0,0,.2-1.19v-2.2h5.39v2a6,6,0,0,1-1.83,4.77A7.46,7.46,0,0,1,310.51,137.86Zm-1.44-13.14h3v-2.09a3.42,3.42,0,0,0-.2-1.29,1.24,1.24,0,0,0-.54-.65,1.73,1.73,0,0,0-.81-.18,1.27,1.27,0,0,0-.74.21,1.5,1.5,0,0,0-.49.74,4.84,4.84,0,0,0-.18,1.5Z"/><path class="cls-1" d="M320.88,137.5V108.34h5.83V137.5Z"/></g></g></svg>