<svg xmlns="http://www.w3.org/2000/svg" viewBox="0 0 53.33 53.33"><title>Asset 14</title><g id="Layer_2" data-name="Layer 2"><g id="Layer_3" data-name="Layer 3"><path d="M42.67,42.67a5.33,5.33,0,1,0,3.77,1.56A5.32,5.32,0,0,0,42.67,42.67ZM0,0V5.33H5.33l9.6,20.24-3.62,6.54a5.39,5.39,0,0,0-.64,2.56A5.33,5.33,0,0,0,16,40H48V34.67H17.12a.68.68,0,0,1-.67-.67.61.61,0,0,1,.08-.32l2.4-4.35H38.8a5.38,5.38,0,0,0,4.67-2.74L53,9.33A3.29,3.29,0,0,0,53.33,8a2.66,2.66,0,0,0-2.66-2.67H11.23L8.72,0M16,42.67a5.33,5.33,0,1,0,3.77,1.56A5.31,5.31,0,0,0,16,42.67Z"/></g></g></svg>